<svg height="30" viewBox="0 0 21 30" width="21" xmlns="http://www.w3.org/2000/svg"><path d="m8.18503937 0 12.81496063 12.9583333-9.6112205 9.6458334 4.4025591 4.4375-2.9350394 2.9583333-12.8562992-13 9.56988189-9.625-4.36122047-4.39583333zm4.00984253 10.7083333c-.0661417.0166667-.1322835.06-.2301732.1513334l-.0798662.0778333-5.45669289 5.5c-.16535433.1458333-.20669292.2291667-.22736221.3125-.02066929.1041667-.02066929.1875 0 .2708333.01653543.0666667.05952756.1333334.15014173.232l.07722048.0805 1.73622047 1.75c.14468504.1666667.2273622.2083334.31003937.2291667.10334646.0208333.18602362.0208333.26870079 0 .06889763-.0173611.13779527-.0491898.2425771-.1557677l.06746227-.073399 5.45669289-5.5c.1653544-.1458333.2066929-.2291666.2273622-.3125.0206693-.1041666.0206693-.1875 0-.2708333-.0165354-.0666667-.0595275-.1333333-.1501417-.232l-.0772205-.0805-1.7362205-1.75c-.144685-.1666667-.2273622-.2083333-.3100393-.2291667-.1033465-.0208333-.1860236-.0208333-.2687008 0zm6.1181102-10.7083333c.7440945 0 1.3848425.27083333 1.9015748.79166667.5167323.52083333.7854331 1.16666666.7854331 1.91666666s-.2687008 1.375-.7854331 1.89583334c-.5167323.52083333-1.1574803.79166666-1.9015748.79166666s-1.3641732-.25-1.8809055-.79166666c-.5167323-.52083334-.7854331-1.14583334-.7854331-1.89583334s.2480315-1.375.7854331-1.91666666c.5167323-.52083334 1.1574803-.79166667 1.8809055-.79166667zm.0206693.4375c-.6200787 0-1.1574803.22916667-1.5708661.66666667-.4340551.4375-.6614173.95833333-.6614173 1.60416666 0 .625.2066929 1.16666667.640748 1.60416667s.9507874.66666667 1.5915354.66666667c.6200788 0 1.1574803-.22916667 1.5708662-.66666667.4340551-.4375.6614173-.97916667.6614173-1.60416667 0-.64583333-.2273622-1.16666666-.6614173-1.60416666-.4340552-.4375-.9507874-.66666667-1.5708662-.66666667zm.1860236.79166667c.5994095 0 .9301181.35416666.9301181.83333333 0 .41666667-.3100393.72916667-.7234251.8125l.7234251 1.3125h-.4960629l-.7234252-1.29166667h-.4753937v1.29166667h-.4340552v-2.95833333zm-.0826771.39583333h-.6820866v.89583333h.6820866c.3720472 0 .5787401-.14583333.5787401-.4375 0-.3125-.1860236-.45833333-.5787401-.45833333z" fill="#fff" fill-rule="evenodd"/></svg>