<svg width="3215" height="3215" viewBox="0 0 3215 3215" fill="none" xmlns="http://www.w3.org/2000/svg">
<circle cx="1607.5" cy="1607.5" r="1607.5" fill="#2663EB"/>
<path d="M468 995.001L927.519 2220H1234L774.346 995.001H468Z" fill="white"/>
<path d="M1279.06 1281.72L927 2220H1233.56L1693 995C1603.02 994.997 1515.17 1022.45 1441.21 1073.68C1367.24 1124.91 1310.67 1197.49 1279.06 1281.72Z" fill="white"/>
<path d="M2134.12 995H2005.39L1890.48 1301.22H2126.67C2292.48 1301.22 2433.93 1429.96 2440.15 1595.65C2441.7 1636.83 2434.93 1677.9 2420.25 1716.4C2405.57 1754.91 2383.28 1790.06 2354.72 1819.75C2326.15 1849.45 2291.89 1873.08 2253.99 1889.23C2216.09 1905.39 2175.32 1913.74 2134.12 1913.78H1660.37L1546 2220H2134.12C2214.57 2220.07 2294.26 2204.28 2368.61 2173.54C2442.97 2142.79 2510.54 2097.69 2567.46 2040.81C2624.38 1983.94 2669.53 1916.4 2700.34 1842.06C2731.14 1767.72 2747 1688.04 2747 1607.57C2747 1527.09 2731.14 1447.4 2700.34 1373.05C2669.53 1298.71 2624.38 1231.16 2567.47 1174.27C2510.55 1117.39 2442.98 1072.27 2368.63 1041.51C2294.27 1010.75 2214.58 994.947 2134.12 995Z" fill="white"/>
</svg>
