<svg id="Layer_1" data-name="Layer 1" xmlns="http://www.w3.org/2000/svg" xmlns:xlink="http://www.w3.org/1999/xlink" width="50" height="50" viewBox="0 0 168.28 90.49"><defs><style>.cls-1{fill:url(#linear-gradient);}.cls-2{fill:url(#linear-gradient-2);}.cls-3{fill:url(#linear-gradient-3);}</style><linearGradient id="linear-gradient" y1="45.25" x2="56.56" y2="45.25" gradientUnits="userSpaceOnUse"><stop offset="0" stop-color="#2663eb"/><stop offset="1" stop-color="#2663eb"/></linearGradient><linearGradient id="linear-gradient-2" x1="33.62" y1="45.32" x2="90.18" y2="45.32" gradientUnits="userSpaceOnUse"><stop offset="0" stop-color="#2663eb"/><stop offset="1" stop-color="#2663eb"/></linearGradient><linearGradient id="linear-gradient-3" x1="167.97" y1="45.32" x2="79.27" y2="45.32" xlink:href="#linear-gradient-2"/></defs><polygon class="cls-1" points="0 0 33.93 90.49 56.56 90.49 22.62 0 0 0"/><path class="cls-2" d="M59.61,21.25l-26,69.31H56.25L90.18.07h0A32.65,32.65,0,0,0,59.61,21.25Z" transform="translate(0.31 -0.07)"/><path class="cls-3" d="M122.72.07h-9.51l-8.49,22.62h17.45c12.25,0,22.7,9.51,23.16,21.75a22.65,22.65,0,0,1-22.61,23.5h-35L79.27,90.56h43.45A45.24,45.24,0,0,0,168,45.32h0A45.25,45.25,0,0,0,122.72.07Z" transform="translate(0.31 -0.07)"/></svg>